<!DOCTYPE svg PUBLIC "-//W3C//DTD SVG 1.1//EN" "http://www.w3.org/Graphics/SVG/1.1/DTD/svg11.dtd">
<!-- Uploaded to: SVG Repo, www.svgrepo.com, Transformed by: SVG Repo Mixer Tools -->
<svg width="800px" height="800px" viewBox="0 0 24 24" fill="none" xmlns="http://www.w3.org/2000/svg">
<g id="SVGRepo_bgCarrier" stroke-width="0"/>
<g id="SVGRepo_tracerCarrier" stroke-linecap="round" stroke-linejoin="round"/>
<g id="SVGRepo_iconCarrier"> <path d="M9.17154 11.508L7.75732 10.0938L12 5.85114L16.2426 10.0938L14.8284 11.508L12 8.67956L9.17154 11.508Z" fill="#ffffff"/> <path d="M9.17154 12.492L7.75732 13.9062L12 18.1489L16.2426 13.9062L14.8284 12.492L12 15.3204L9.17154 12.492Z" fill="#ffffff"/> <path fill-rule="evenodd" clip-rule="evenodd" d="M23 12C23 18.0751 18.0751 23 12 23C5.92487 23 1 18.0751 1 12C1 5.92487 5.92487 1 12 1C18.0751 1 23 5.92487 23 12ZM21 12C21 16.9706 16.9706 21 12 21C7.02944 21 3 16.9706 3 12C3 7.02944 7.02944 3 12 3C16.9706 3 21 7.02944 21 12Z" fill="#ffffff"/> </g>
</svg>