<svg width="50" height="51" viewBox="0 0 50 51" fill="none" xmlns="http://www.w3.org/2000/svg">
<g filter="url(#filter0_i_85_487)">
<path d="M21.1328 13.9958C22.7716 9.91038 23.591 7.86768 25 7.86768C26.409 7.86768 27.2284 9.91038 28.8671 13.9958L28.9435 14.186C29.8693 16.4941 30.3322 17.6481 31.2756 18.3496C32.2191 19.051 33.4575 19.1619 35.9344 19.3837L36.3822 19.4238C40.436 19.7869 42.4629 19.9684 42.8966 21.258C43.3303 22.5475 41.825 23.917 38.8145 26.6559L37.8098 27.57C36.2858 28.9565 35.5238 29.6498 35.1687 30.5584C35.1024 30.7279 35.0473 30.9015 35.0038 31.0782C34.7703 32.0254 34.9935 33.0311 35.4397 35.0425L35.5786 35.6686C36.3988 39.3651 36.8089 41.2134 36.0929 42.0106C35.8253 42.3085 35.4776 42.523 35.0913 42.6284C34.0576 42.9105 32.5899 41.7145 29.6546 39.3227C27.7271 37.7521 26.7634 36.9668 25.657 36.7901C25.2217 36.7206 24.7782 36.7206 24.343 36.7901C23.2366 36.9668 22.2728 37.7521 20.3454 39.3227C17.4101 41.7145 15.9424 42.9105 14.9087 42.6284C14.5224 42.523 14.1747 42.3085 13.9071 42.0106C13.1911 41.2134 13.6012 39.3651 14.4213 35.6686L14.5602 35.0425C15.0065 33.0311 15.2296 32.0254 14.9962 31.0782C14.9527 30.9015 14.8976 30.7279 14.8313 30.5584C14.4762 29.6498 13.7142 28.9565 12.1902 27.57L11.1855 26.6559C8.17495 23.917 6.6697 22.5475 7.10341 21.258C7.53711 19.9684 9.564 19.7869 13.6178 19.4238L14.0656 19.3837C16.5425 19.1619 17.7809 19.051 18.7244 18.3496C19.6678 17.6481 20.1307 16.4941 21.0565 14.186L21.1328 13.9958Z" stroke="#939FB1" stroke-width="3"/>
</g>
<defs>
<filter id="filter0_i_85_487" x="5.52759" y="6.36768" width="38.9448" height="41.8018" filterUnits="userSpaceOnUse" color-interpolation-filters="sRGB">
<feFlood flood-opacity="0" result="BackgroundImageFix"/>
<feBlend mode="normal" in="SourceGraphic" in2="BackgroundImageFix" result="shape"/>
<feColorMatrix in="SourceAlpha" type="matrix" values="0 0 0 0 0 0 0 0 0 0 0 0 0 0 0 0 0 0 127 0" result="hardAlpha"/>
<feOffset dy="4"/>
<feGaussianBlur stdDeviation="2"/>
<feComposite in2="hardAlpha" operator="arithmetic" k2="-1" k3="1"/>
<feColorMatrix type="matrix" values="0 0 0 0 0 0 0 0 0 0 0 0 0 0 0 0 0 0 0.25 0"/>
<feBlend mode="normal" in2="shape" result="effect1_innerShadow_85_487"/>
</filter>
</defs>
</svg>
